<svg width="71" height="70" viewBox="0 0 71 70" fill="none" xmlns="http://www.w3.org/2000/svg">
<path d="M36.5 17.2496C36.5 15.592 35.8416 14.0023 34.6694 12.8302C33.4973 11.6581 31.9076 10.9996 30.25 10.9996C28.5924 10.9996 27.0027 11.6581 25.8306 12.8302C24.6585 14.0023 24 15.592 24 17.2496C22.67 17.2493 21.3638 17.6026 20.2154 18.2733C19.0669 18.9441 18.1175 19.9082 17.4644 21.0668C16.8113 22.2254 16.478 23.5369 16.4988 24.8667C16.5196 26.1966 16.8936 27.497 17.5825 28.6346C15.8714 28.9653 14.3287 29.8813 13.2194 31.2255C12.1101 32.5696 11.5034 34.2581 11.5034 36.0009C11.5034 37.7437 12.1101 39.4321 13.2194 40.7763C14.3287 42.1205 15.8714 43.0365 17.5825 43.3671C16.8942 44.5047 16.5207 45.8049 16.5003 47.1344C16.4798 48.4638 16.8132 49.7748 17.4662 50.9331C18.1192 52.0913 19.0684 53.0551 20.2165 53.7257C21.3646 54.3964 22.6704 54.7497 24 54.7496C24.0004 56.4072 24.6592 57.9968 25.8315 59.1687C27.0038 60.3406 28.5937 60.9987 30.2513 60.9984C31.9089 60.9981 33.4985 60.3393 34.6703 59.1669C35.8422 57.9946 36.5004 56.4047 36.5 54.7471" stroke="url(#paint0_linear_129_12246)" stroke-width="3.625" stroke-linecap="round" stroke-linejoin="round"/>
<path d="M36.4999 54.7502C36.4999 56.4078 37.1584 57.9975 38.3305 59.1696C39.5026 60.3417 41.0923 61.0002 42.7499 61.0002C44.4075 61.0002 45.9973 60.3417 47.1694 59.1696C48.3415 57.9975 48.9999 56.4078 48.9999 54.7502C50.3296 54.7503 51.6353 54.3969 52.7834 53.7263C53.9315 53.0556 54.8807 52.0918 55.5337 50.9336C56.1868 49.7754 56.5201 48.4643 56.4997 47.1349C56.4793 45.8054 56.1057 44.5053 55.4174 43.3676C57.1286 43.037 58.6713 42.121 59.7806 40.7768C60.8899 39.4326 61.4966 37.7442 61.4966 36.0014C61.4966 34.2586 60.8899 32.5702 59.7806 31.226C58.6713 29.8818 57.1286 28.9658 55.4174 28.6352C56.1064 27.4975 56.4804 26.1971 56.5012 24.8672C56.5219 23.5374 56.1887 22.226 55.5356 21.0673C54.8825 19.9087 53.9331 18.9446 52.7846 18.2738C51.6361 17.6031 50.3299 17.2498 48.9999 17.2502C49.0001 16.4294 48.8386 15.6166 48.5247 14.8583C48.2107 14.0999 47.7505 13.4109 47.1702 12.8304C46.59 12.2499 45.9011 11.7894 45.1429 11.4751C44.3846 11.1609 43.572 10.9991 42.7512 10.9989C41.0936 10.9986 39.5037 11.6567 38.3314 12.8286C37.1591 14.0005 36.5003 15.59 36.4999 17.2477" stroke="url(#paint1_linear_129_12246)" stroke-width="3.625" stroke-linecap="round" stroke-linejoin="round"/>
<path d="M32.7174 23.5025V28.45M23.9999 32.2525H29.1299M44.0574 32.2525H49.1874M44.0574 39.6875H49.1874M23.9999 39.6875H29.1299M32.7174 43.55V48.5M40.2799 43.55V48.5M40.2574 23.5V28.45M31.6324 43.4225H41.5599C42.223 43.4225 42.8589 43.1591 43.3277 42.6903C43.7965 42.2214 44.0599 41.5855 44.0599 40.9225V30.95C44.0599 30.287 43.7965 29.6511 43.3277 29.1822C42.8589 28.7134 42.223 28.45 41.5599 28.45H31.6324C30.9694 28.45 30.3335 28.7134 29.8647 29.1822C29.3958 29.6511 29.1324 30.287 29.1324 30.95V40.9225C29.1324 41.5855 29.3958 42.2214 29.8647 42.6903C30.3335 43.1591 30.9694 43.4225 31.6324 43.4225Z" stroke="url(#paint2_linear_129_12246)" stroke-width="3.625" stroke-linecap="round" stroke-linejoin="round"/>
<defs>
<linearGradient id="paint0_linear_129_12246" x1="11.5034" y1="35.7465" x2="36.5" y2="35.7465" gradientUnits="userSpaceOnUse">
<stop stop-color="#FFC304"/>
<stop offset="1" stop-color="#FF7320"/>
</linearGradient>
<linearGradient id="paint1_linear_129_12246" x1="36.4999" y1="35.747" x2="61.4966" y2="35.747" gradientUnits="userSpaceOnUse">
<stop stop-color="#FFC304"/>
<stop offset="1" stop-color="#FF7320"/>
</linearGradient>
<linearGradient id="paint2_linear_129_12246" x1="23.9999" y1="35.8737" x2="49.1874" y2="35.8737" gradientUnits="userSpaceOnUse">
<stop stop-color="#FFC304"/>
<stop offset="1" stop-color="#FF7320"/>
</linearGradient>
</defs>
</svg>
