<svg width="26" height="26" viewBox="0 0 26 26" fill="none" xmlns="http://www.w3.org/2000/svg">
<rect width="26" height="26" rx="13" fill="#BEBCBC"/>
<path d="M10.3588 7.4458C9.85049 7.4458 8.31791 8.06753 8.04295 8.19178C7.76799 8.31603 7.4628 8.7039 7.1165 9.34405C6.76974 9.9842 6.49147 10.7325 6.03935 11.8333C5.5877 12.9341 5.48235 15.0563 5.49747 15.704C5.51258 16.3517 5.58676 16.8577 6.25053 17.2408C6.91383 17.6235 7.5006 18.0241 8.11807 18.2651C8.73602 18.506 9.15743 18.6794 9.44373 18.4384C9.73002 18.1975 9.91852 17.7756 9.91852 17.7756C9.91852 17.7756 10.1897 17.3991 9.67758 17.1733C9.16546 16.947 8.9094 16.7887 8.9316 16.5553C8.95428 16.3219 8.9916 16.1939 9.11963 16.2241C9.24766 16.2544 9.54955 16.7963 10.7094 17.0448C11.8692 17.2933 12.9998 17.2559 12.9998 17.2559C12.9998 17.2559 14.1308 17.2937 15.2906 17.0448C16.4504 16.7963 16.7518 16.2544 16.8799 16.2241C17.0079 16.1939 17.0452 16.3219 17.0679 16.5548C17.0906 16.7887 16.8345 16.947 16.3224 17.1733C15.8103 17.3991 16.0815 17.7756 16.0815 17.7756C16.0815 17.7756 16.27 18.197 16.5563 18.4384C16.8421 18.6794 17.264 18.506 17.8814 18.2651C18.4989 18.0241 19.0862 17.624 19.7495 17.2408C20.4132 16.8577 20.4874 16.3517 20.5025 15.704C20.5176 15.0567 20.4123 12.9341 19.9602 11.8333C19.5085 10.7325 19.2298 9.9842 18.883 9.34405C18.5372 8.7039 18.2315 8.31603 17.957 8.19131C17.6821 8.06753 16.149 7.4458 15.6407 7.4458C15.1323 7.4458 14.9821 7.80013 14.9821 7.80013L14.8049 8.19178C14.8049 8.19178 13.6144 7.96548 13.0078 7.96501C12.4012 7.96501 11.195 8.19178 11.195 8.19178L11.0179 7.79966C11.0179 7.79966 10.8676 7.4458 10.3588 7.4458ZM10.4141 12.1456H10.433C11.1743 12.1456 11.7747 12.7943 11.7747 13.5941C11.7747 14.3944 11.1743 15.0426 10.433 15.0426C9.69175 15.0426 9.09129 14.3944 9.09129 13.5941C9.09082 12.8018 9.68042 12.1565 10.4141 12.1456ZM15.567 12.1456H15.5859C16.3196 12.1565 16.9087 12.8023 16.9087 13.5941C16.9087 14.3944 16.3082 15.0426 15.567 15.0426C14.8252 15.0426 14.2253 14.3944 14.2253 13.5941C14.2253 12.7943 14.8252 12.1456 15.567 12.1456Z" fill="#111111"/>
</svg>
