<svg width="26" height="26" viewBox="0 0 26 26" fill="none" xmlns="http://www.w3.org/2000/svg">
<rect width="26" height="26" rx="13" fill="#BEBCBC"/>
<path fill-rule="evenodd" clip-rule="evenodd" d="M13 5C8.58233 5 5 8.67233 5 13.2023C5 16.8267 7.29233 19.9013 10.471 20.9857C10.871 21.0617 11.0177 20.808 11.0177 20.5913C11.0177 20.3957 11.01 19.7497 11.0067 19.0643C8.781 19.5603 8.31133 18.0963 8.31133 18.0963C7.94733 17.1483 7.423 16.8963 7.423 16.8963C6.69733 16.387 7.478 16.3977 7.478 16.3977C8.28133 16.4553 8.70433 17.2427 8.70433 17.2427C9.41767 18.4967 10.5757 18.1343 11.0323 17.9247C11.104 17.3947 11.3113 17.0327 11.54 16.828C9.76333 16.6203 7.89533 15.917 7.89533 12.774C7.89533 11.8787 8.20767 11.1467 8.71967 10.5723C8.63633 10.3657 8.36267 9.53133 8.797 8.40167C8.797 8.40167 9.469 8.18133 10.9977 9.24233C11.6357 9.06067 12.3203 8.96967 13 8.96633C13.68 8.96967 14.365 9.06067 15.0043 9.24233C16.531 8.18133 17.202 8.40167 17.202 8.40167C17.6373 9.53167 17.3633 10.3657 17.2803 10.5723C17.7937 11.1467 18.1037 11.8787 18.1037 12.774C18.1037 15.9247 16.2323 16.6183 14.4507 16.8213C14.7377 17.076 14.9933 17.575 14.9933 18.3403C14.9933 19.4377 14.9843 20.321 14.9843 20.5913C14.9843 20.8097 15.1283 21.0653 15.5337 20.9847C18.7107 19.899 21 16.8253 21 13.2023C21 8.67233 17.4183 5 13 5Z" fill="#111111"/>
<path fill-rule="evenodd" clip-rule="evenodd" d="M8.02999 16.777C8.01233 16.818 7.94999 16.83 7.89299 16.802C7.83499 16.7753 7.80233 16.7197 7.82099 16.6787C7.83833 16.6367 7.90099 16.6253 7.95899 16.653C8.01699 16.68 8.04999 16.7363 8.02999 16.777ZM8.35399 17.1477C8.31599 17.1837 8.24133 17.167 8.19066 17.1097C8.13833 17.0523 8.12866 16.976 8.16733 16.9393C8.20666 16.9027 8.27899 16.92 8.33133 16.977C8.38366 17.035 8.39399 17.111 8.35399 17.1477ZM8.66933 17.62C8.62066 17.655 8.54033 17.6223 8.49066 17.5493C8.44166 17.476 8.44166 17.3887 8.49199 17.3537C8.54166 17.3187 8.62033 17.3503 8.67066 17.4227C8.71966 17.4967 8.71966 17.5843 8.66933 17.62ZM9.10166 18.0767C9.05766 18.126 8.96433 18.1127 8.89599 18.045C8.82599 17.979 8.80666 17.885 8.85066 17.8353C8.89499 17.7857 8.98899 17.7997 9.05766 17.8667C9.12733 17.9327 9.14833 18.0273 9.10166 18.0767ZM9.69766 18.3413C9.67833 18.4057 9.58833 18.4347 9.49766 18.4077C9.40766 18.3793 9.34833 18.3043 9.36633 18.2393C9.38533 18.1747 9.47566 18.144 9.56699 18.1733C9.65699 18.2013 9.71666 18.276 9.69766 18.3413ZM10.3527 18.3907C10.3547 18.4583 10.278 18.514 10.1827 18.5153C10.087 18.5177 10.0097 18.463 10.0087 18.3963C10.0087 18.328 10.084 18.2727 10.1793 18.271C10.2747 18.269 10.3527 18.3233 10.3527 18.3907ZM10.9617 18.2843C10.973 18.3503 10.907 18.418 10.8127 18.436C10.7197 18.4533 10.6337 18.4127 10.622 18.3473C10.6103 18.2797 10.6777 18.2117 10.7703 18.194C10.865 18.1773 10.9497 18.2177 10.9617 18.2843Z" fill="#111111"/>
</svg>
