<svg width="60" height="60" viewBox="0 0 60 60" fill="none" xmlns="http://www.w3.org/2000/svg">
<path fill-rule="evenodd" clip-rule="evenodd" d="M31.8048 3.05306C31.7426 2.45467 31.2383 2 30.6367 2C30.0351 2 29.5308 2.45467 29.4687 3.05306L28.5404 11.9949C28.1618 15.6422 25.279 18.5251 21.6316 18.9037L12.6898 19.832C12.0914 19.8941 11.6367 20.3984 11.6367 21C11.6367 21.6016 12.0914 22.1059 12.6898 22.168L21.6316 23.0963C25.279 23.4749 28.1618 26.3578 28.5404 30.0051L29.4687 38.9469C29.5308 39.5453 30.0351 40 30.6367 40C31.2383 40 31.7426 39.5453 31.8048 38.9469L32.733 30.0051C33.1116 26.3578 35.9945 23.4749 39.6418 23.0963L48.5837 22.168C49.1821 22.1059 49.6367 21.6016 49.6367 21C49.6367 20.3984 49.1821 19.8941 48.5837 19.832L39.6418 18.9037C35.9945 18.5251 33.1116 15.6422 32.733 11.9949L31.8048 3.05306Z" fill="url(#paint0_linear_226_202)"/>
<path fill-rule="evenodd" clip-rule="evenodd" d="M46.7129 39.5265C46.6819 39.2273 46.4297 39 46.1289 39C45.8281 39 45.5759 39.2273 45.5449 39.5265L45.0808 43.9975C44.8915 45.8211 43.45 47.2626 41.6264 47.4519L37.1554 47.916C36.8562 47.947 36.6289 48.1992 36.6289 48.5C36.6289 48.8008 36.8562 49.053 37.1554 49.084L41.6264 49.5481C43.45 49.7374 44.8915 51.1789 45.0808 53.0025L45.5449 57.4735C45.5759 57.7727 45.8281 58 46.1289 58C46.4297 58 46.6819 57.7727 46.7129 57.4735L47.177 53.0025C47.3664 51.1789 48.8078 49.7374 50.6314 49.5481L55.1024 49.084C55.4016 49.053 55.6289 48.8008 55.6289 48.5C55.6289 48.1992 55.4016 47.947 55.1024 47.916L50.6314 47.4519C48.8078 47.2626 47.3664 45.8211 47.177 43.9975L46.7129 39.5265Z" fill="#FFCF01"/>
<path fill-rule="evenodd" clip-rule="evenodd" d="M14.7129 30.5265C14.6819 30.2273 14.4297 30 14.1289 30C13.8281 30 13.5759 30.2273 13.5449 30.5265L13.0808 34.9975C12.8915 36.8211 11.45 38.2626 9.62637 38.4519L5.15544 38.916C4.85624 38.947 4.62891 39.1992 4.62891 39.5C4.62891 39.8008 4.85624 40.053 5.15544 40.084L9.62637 40.5481C11.45 40.7374 12.8915 42.1789 13.0808 44.0025L13.5449 48.4735C13.5759 48.7727 13.8281 49 14.1289 49C14.4297 49 14.6819 48.7727 14.7129 48.4735L15.177 44.0025C15.3664 42.1789 16.8078 40.7374 18.6314 40.5481L23.1024 40.084C23.4016 40.053 23.6289 39.8008 23.6289 39.5C23.6289 39.1992 23.4016 38.947 23.1024 38.916L18.6314 38.4519C16.8078 38.2626 15.3664 36.8211 15.177 34.9975L14.7129 30.5265Z" fill="url(#paint1_linear_226_202)"/>
<defs>
<linearGradient id="paint0_linear_226_202" x1="49.6367" y1="21.0207" x2="13.1262" y2="28.364" gradientUnits="userSpaceOnUse">
<stop stop-color="#FF8135"/>
<stop offset="0.0625" stop-color="#FF8135"/>
<stop offset="0.125" stop-color="#FF8135"/>
<stop offset="0.1875" stop-color="#FF8235"/>
<stop offset="0.25" stop-color="#FF8335"/>
<stop offset="0.3125" stop-color="#FF8434"/>
<stop offset="0.375" stop-color="#FF8734"/>
<stop offset="0.4375" stop-color="#FF8A33"/>
<stop offset="0.5" stop-color="#FF8E31"/>
<stop offset="0.5625" stop-color="#FF9330"/>
<stop offset="0.625" stop-color="#FF992E"/>
<stop offset="0.6875" stop-color="#FFA02B"/>
<stop offset="0.75" stop-color="#FFA827"/>
<stop offset="0.8125" stop-color="#FFB023"/>
<stop offset="0.875" stop-color="#FFBA1D"/>
<stop offset="0.9375" stop-color="#FFC413"/>
<stop offset="1" stop-color="#FFCF01"/>
</linearGradient>
<linearGradient id="paint1_linear_226_202" x1="4.62891" y1="39.404" x2="23.6289" y2="39.404" gradientUnits="userSpaceOnUse">
<stop stop-color="#FFC304"/>
<stop offset="1" stop-color="#FF7320"/>
</linearGradient>
</defs>
</svg>
