<svg width="26" height="26" viewBox="0 0 26 26" fill="none" xmlns="http://www.w3.org/2000/svg">
<rect width="26" height="26" rx="13" fill="#BEBCBC"/>
<path d="M19.9695 13.0271C19.969 12.6014 19.7997 12.1933 19.4987 11.8922C19.1977 11.5912 18.7895 11.4219 18.3638 11.4215C17.974 11.421 17.5975 11.5635 17.3056 11.8219C16.2437 11.1424 14.8269 10.7143 13.2641 10.668L14.2205 7.39747L16.5683 7.83373C16.5683 7.85292 16.5643 7.87098 16.5654 7.89017C16.5794 8.1588 16.6994 8.41091 16.8991 8.5912C17.0987 8.77149 17.3617 8.86523 17.6304 8.85186C17.899 8.83777 18.151 8.71775 18.3313 8.51811C18.5115 8.31847 18.6052 8.05551 18.5918 7.78689C18.5778 7.51825 18.4578 7.26614 18.2582 7.08585C18.0585 6.90557 17.7955 6.81183 17.5268 6.82519C17.3557 6.8343 17.1897 6.88672 17.0443 6.97754C16.8989 7.06835 16.779 7.19459 16.6958 7.34442L16.695 7.34413L13.8658 6.81842L12.739 10.6675C11.1723 10.7089 9.7509 11.1348 8.68452 11.8128C8.39388 11.5599 8.02146 11.4209 7.63619 11.4215C7.21051 11.422 6.80241 11.5913 6.50141 11.8923C6.2004 12.1933 6.03107 12.6014 6.03055 13.0271C6.03055 13.5745 6.31245 14.0797 6.76903 14.3743C6.74049 14.5354 6.72586 14.6988 6.72529 14.8624C6.72529 17.1798 9.53475 19.0653 12.9881 19.0653C16.4416 19.0653 19.2504 17.1798 19.2504 14.8622C19.2504 14.7019 19.2358 14.5439 19.2095 14.3881C19.4413 14.2444 19.6327 14.0441 19.7656 13.8059C19.8985 13.5678 19.9688 13.2998 19.9695 13.0271ZM10.0116 14.1197C10.0117 13.9902 10.0372 13.8619 10.0869 13.7422C10.1365 13.6225 10.2092 13.5137 10.3008 13.4221C10.3925 13.3305 10.5013 13.2579 10.621 13.2083C10.7407 13.1588 10.869 13.1333 10.9986 13.1333C11.1282 13.1334 11.2565 13.1589 11.3761 13.2086C11.4958 13.2582 11.6046 13.3309 11.6962 13.4225C11.7878 13.5142 11.8604 13.623 11.91 13.7427C11.9595 13.8624 11.985 13.9907 11.985 14.1203C11.9849 14.382 11.8809 14.6329 11.6958 14.8179C11.5107 15.0029 11.2597 15.1067 10.998 15.1067C10.7363 15.1066 10.4854 15.0026 10.3004 14.8175C10.1154 14.6324 10.0116 14.3814 10.0116 14.1197ZM15.3139 16.7887C15.2846 16.8191 14.5766 17.5395 12.9766 17.5395C11.3681 17.5395 10.7247 16.8092 10.6985 16.7782C10.6578 16.7272 10.6384 16.6625 10.6444 16.5976C10.6505 16.5326 10.6814 16.4726 10.7307 16.4299C10.7801 16.3873 10.844 16.3654 10.9091 16.3689C10.9742 16.3724 11.0355 16.401 11.08 16.4486C11.0947 16.4644 11.6314 17.0353 12.9763 17.0353C14.3449 17.0353 14.9448 16.4441 14.951 16.4385C14.9984 16.3951 15.0606 16.3715 15.1248 16.3723C15.189 16.3732 15.2505 16.3985 15.2968 16.4431C15.343 16.4876 15.3705 16.5482 15.3737 16.6123C15.3769 16.6765 15.3555 16.7397 15.3139 16.7887ZM15.1178 15.1065C14.9883 15.1066 14.86 15.0811 14.7403 15.0316C14.6205 14.9821 14.5118 14.9095 14.4201 14.8179C14.3285 14.7263 14.2558 14.6176 14.2061 14.4979C14.1565 14.3783 14.1309 14.25 14.1309 14.1204C14.1308 13.9909 14.1563 13.8626 14.2058 13.7429C14.2553 13.6232 14.3279 13.5144 14.4195 13.4227C14.5111 13.3311 14.6198 13.2584 14.7395 13.2087C14.8591 13.1591 14.9874 13.1335 15.117 13.1335C15.3786 13.1334 15.6296 13.2372 15.8147 13.4221C15.9998 13.6071 16.1038 13.8579 16.1039 14.1196C16.104 14.3812 16.0002 14.6322 15.8153 14.8173C15.6303 15.0024 15.3795 15.1064 15.1178 15.1065Z" fill="#111111"/>
</svg>
