<svg width="26" height="26" viewBox="0 0 26 26" fill="none" xmlns="http://www.w3.org/2000/svg">
<rect width="26" height="26" rx="13" fill="#BEBCBC"/>
<path d="M20.5333 9.86665C20.5333 9.73331 20.3333 8.66665 19.8666 8.19998C19.2666 7.53331 18.6 7.46665 18.2666 7.46665H18.2C16.1333 7.33331 13.0666 7.33331 13 7.33331C13 7.33331 9.86665 7.33331 7.79998 7.46665H7.73331C7.39998 7.46665 6.73331 7.53331 6.13331 8.19998C5.66665 8.73331 5.46665 9.79998 5.46665 9.93331C5.46665 9.99998 5.33331 11.2 5.33331 12.4666V13.6C5.33331 14.8666 5.46665 16.0666 5.46665 16.1333C5.46665 16.2666 5.66665 17.3333 6.13331 17.8C6.66665 18.4 7.33331 18.4666 7.73331 18.5333H7.93331C9.13331 18.6666 12.8 18.6666 12.9333 18.6666C12.9333 18.6666 16.0666 18.6666 18.1333 18.5333H18.2C18.5333 18.4666 19.2 18.4 19.8 17.8C20.2666 17.2666 20.4666 16.2 20.4666 16.0666C20.4666 16 20.6 14.8 20.6 13.5333V12.4C20.6666 11.2 20.5333 9.93331 20.5333 9.86665ZM15.6 13.1333L11.6 15.2666C11.5333 15.2666 11.5333 15.3333 11.4666 15.3333C11.4 15.3333 11.3333 15.3333 11.3333 15.2666C11.2666 15.2 11.2 15.1333 11.2 15V10.6666C11.2 10.5333 11.2666 10.4666 11.3333 10.4C11.4 10.3333 11.5333 10.3333 11.6666 10.4L15.6666 12.5333C15.8 12.6 15.8666 12.6666 15.8666 12.8C15.8666 12.9333 15.7333 13.0666 15.6 13.1333Z" fill="#111111"/>
</svg>
