<svg width="24" height="25" viewBox="0 0 24 25" fill="none" xmlns="http://www.w3.org/2000/svg">
<path d="M20.5 17.1736V10.2446C20.5 6.47363 20.5 4.58763 19.328 3.41663C18.156 2.24563 16.271 2.24463 12.5 2.24463H11.5C7.729 2.24463 5.843 2.24463 4.672 3.41663C3.501 4.58863 3.5 6.47363 3.5 10.2446V19.7446" stroke="#3FDD78" stroke-width="1.5" stroke-linecap="round" stroke-linejoin="round"/>
<path d="M20.5 17.2446H6C5.33696 17.2446 4.70107 17.508 4.23223 17.9769C3.76339 18.4457 3.5 19.0816 3.5 19.7446C3.5 20.4077 3.76339 21.0436 4.23223 21.5124C4.70107 21.9812 5.33696 22.2446 6 22.2446H20.5" stroke="#3FDD78" stroke-width="1.5" stroke-linecap="round" stroke-linejoin="round"/>
<path d="M20.5 22.2445C19.837 22.2445 19.2011 21.9811 18.7322 21.5123C18.2634 21.0435 18 20.4076 18 19.7445C18 19.0815 18.2634 18.4456 18.7322 17.9768C19.2011 17.5079 19.837 17.2445 20.5 17.2445M12.308 12.2445L10.847 7.72353C10.7964 7.58103 10.7023 7.45808 10.5779 7.3721C10.4535 7.28612 10.3052 7.24149 10.154 7.24453C10.0028 7.24149 9.85452 7.28612 9.73013 7.3721C9.60574 7.45808 9.51158 7.58103 9.461 7.72353L8 12.2445M15 7.24453V12.2445M8.538 10.7445H11.769" stroke="#3FDD78" stroke-width="1.5" stroke-linecap="round" stroke-linejoin="round"/>
</svg>
