<svg width="16" height="17" viewBox="0 0 16 17" fill="none" xmlns="http://www.w3.org/2000/svg">
<path fill-rule="evenodd" clip-rule="evenodd" d="M5.73628 14.0592C5.97992 13.7831 6.40121 13.7569 6.67726 14.0005C7.03023 14.312 7.49231 14.5003 7.99999 14.5003C8.50767 14.5003 8.96974 14.312 9.32271 14.0005C9.59876 13.7569 10.0201 13.7831 10.2637 14.0592C10.5073 14.3352 10.4811 14.7565 10.205 15.0002C9.61782 15.5184 8.8449 15.8337 7.99999 15.8337C7.15507 15.8337 6.38216 15.5184 5.79495 15.0002C5.5189 14.7565 5.49264 14.3352 5.73628 14.0592Z" fill="#6C7275"/>
<path fill-rule="evenodd" clip-rule="evenodd" d="M4.70016 2.53383C5.57533 1.65866 6.76231 1.16699 7.99999 1.16699C9.23766 1.16699 10.4247 1.65866 11.2998 2.53383C12.175 3.409 12.6667 4.59598 12.6667 5.83366C12.6667 7.77544 13.1547 9.0629 13.6662 9.88506L13.6742 9.89778C13.9123 10.2806 14.1007 10.5832 14.2276 10.8034C14.2912 10.9138 14.3492 11.0201 14.3921 11.1146C14.4135 11.1618 14.4375 11.2196 14.4562 11.2825C14.4717 11.3347 14.5013 11.4461 14.4902 11.5818C14.4828 11.673 14.4642 11.8289 14.3747 11.9899C14.2853 12.1508 14.1628 12.249 14.0893 12.3035C13.9225 12.4273 13.7308 12.4556 13.6669 12.465L13.6639 12.4654C13.5657 12.48 13.4541 12.4872 13.3416 12.4916C13.1181 12.5003 12.8087 12.5003 12.4239 12.5003H3.57609C3.19127 12.5003 2.88184 12.5003 2.65834 12.4916C2.54584 12.4872 2.43432 12.48 2.33604 12.4654L2.33309 12.465C2.26914 12.4556 2.07752 12.4273 1.91066 12.3035C1.83717 12.249 1.71468 12.1508 1.62525 11.9899C1.53581 11.8289 1.51722 11.673 1.50976 11.5818C1.49866 11.4461 1.52826 11.3347 1.5438 11.2825C1.56252 11.2196 1.58649 11.1618 1.6079 11.1146C1.65081 11.0201 1.70877 10.9138 1.77238 10.8034C1.89933 10.5832 2.08765 10.2805 2.32587 9.89769L2.33373 9.88506C2.84532 9.0629 3.33332 7.77544 3.33332 5.83366C3.33332 4.59598 3.82499 3.409 4.70016 2.53383Z" fill="#6C7275"/>
</svg>
