<svg width="16" height="17" viewBox="0 0 16 17" fill="none" xmlns="http://www.w3.org/2000/svg">
<path d="M8.26858 1.29003C8.09137 1.25358 7.90859 1.25358 7.73138 1.29003C7.52653 1.33216 7.34344 1.43471 7.19788 1.51624L7.1582 1.53841C5.98292 2.19134 3.99471 3.29644 2.87378 3.91952C2.60161 4.0708 2.46553 4.14644 2.42006 4.24641C2.38041 4.33357 2.38016 4.43356 2.41936 4.52091C2.46433 4.62111 2.60014 4.69751 2.87177 4.8503L7.73848 7.58785C7.83386 7.6415 7.88155 7.66832 7.93212 7.67884C7.97686 7.68814 8.02305 7.68814 8.0678 7.67884C8.11836 7.66832 8.16605 7.6415 8.26143 7.58785L13.1282 4.85029C13.3998 4.6975 13.5356 4.62111 13.5806 4.52091C13.6198 4.43355 13.6195 4.33356 13.5799 4.24641C13.5344 4.14644 13.3983 4.07079 13.1262 3.91951C12.0052 3.29644 10.017 2.19134 8.84176 1.53841L8.80209 1.51624C8.65653 1.43471 8.47343 1.33216 8.26858 1.29003Z" fill="#6C7275"/>
<path d="M14.6639 6.42676C14.6637 6.12787 14.6635 5.97842 14.6005 5.89117C14.5455 5.81504 14.461 5.76564 14.3677 5.75511C14.2607 5.74305 14.1302 5.81646 13.8692 5.96329L8.93851 8.73679C8.83953 8.79246 8.79004 8.8203 8.75402 8.85968C8.72215 8.89452 8.69805 8.93573 8.68331 8.98059C8.66665 9.03129 8.66665 9.08807 8.66665 9.20163V14.6518C8.66665 14.9499 8.66665 15.099 8.72933 15.1862C8.78402 15.2623 8.8682 15.3118 8.96126 15.3227C9.06792 15.3352 9.19783 15.263 9.45764 15.1188C10.5685 14.5019 12.5876 13.3807 13.7751 12.721L13.8172 12.6977C13.9713 12.6128 14.165 12.5061 14.3138 12.3447C14.4424 12.2051 14.5398 12.0397 14.5993 11.8594C14.6682 11.6509 14.6674 11.4298 14.6668 11.2538L14.6666 11.2058C14.6666 9.89704 14.665 7.67087 14.6639 6.42676Z" fill="#6C7275"/>
<path d="M6.54232 15.1187C6.80213 15.263 6.93204 15.3352 7.0387 15.3227C7.13176 15.3118 7.21594 15.2623 7.27063 15.1862C7.33331 15.099 7.33331 14.9499 7.33331 14.6518V9.20166C7.33331 9.0881 7.33331 9.03132 7.31665 8.98062C7.30191 8.93576 7.27781 8.89455 7.24594 8.85971C7.20992 8.82033 7.16043 8.79249 7.06145 8.73682L2.1308 5.9633C1.86978 5.81648 1.73927 5.74306 1.63231 5.75513C1.53899 5.76565 1.45444 5.81506 1.39945 5.89118C1.33642 5.97844 1.3363 6.12789 1.33605 6.42678C1.33501 7.67088 1.33331 9.89704 1.33331 11.2058L1.3332 11.2538C1.33256 11.4298 1.33175 11.6509 1.40063 11.8594C1.46018 12.0397 1.55752 12.2051 1.68616 12.3447C1.83494 12.5061 2.02867 12.6128 2.18275 12.6977L2.22487 12.721C3.41233 13.3807 5.43142 14.5019 6.54232 15.1187Z" fill="#6C7275"/>
</svg>
