<svg width="24" height="25" viewBox="0 0 24 25" fill="none" xmlns="http://www.w3.org/2000/svg">
<path d="M21 14.2446V19.2446C21 19.7751 20.7893 20.2838 20.4142 20.6588C20.0391 21.0339 19.5304 21.2446 19 21.2446H5C4.46957 21.2446 3.96086 21.0339 3.58579 20.6588C3.21071 20.2838 3 19.7751 3 19.2446V5.24463C3 4.7142 3.21071 4.20549 3.58579 3.83042C3.96086 3.45534 4.46957 3.24463 5 3.24463H10V5.24463H5V19.2446H19V14.2446H21Z" fill="#FFC304"/>
<path d="M21 7.24463H17V3.24463H15V7.24463H11V9.24463H15V13.2446H17V9.24463H21V7.24463Z" fill="#FFC304"/>
</svg>
