<svg width="24" height="25" viewBox="0 0 24 25" fill="none" xmlns="http://www.w3.org/2000/svg">
<path d="M15 21.2446V13.2446C15 12.9794 14.8946 12.7251 14.7071 12.5375C14.5196 12.35 14.2652 12.2446 14 12.2446H10C9.73478 12.2446 9.48043 12.35 9.29289 12.5375C9.10536 12.7251 9 12.9794 9 13.2446V21.2446" stroke="#8C6584" stroke-width="2" stroke-linecap="round" stroke-linejoin="round"/>
<path d="M3 10.2446C2.99993 9.95366 3.06333 9.66622 3.18579 9.40231C3.30824 9.13841 3.4868 8.90439 3.709 8.7166L10.709 2.7176C11.07 2.41251 11.5274 2.24512 12 2.24512C12.4726 2.24512 12.93 2.41251 13.291 2.7176L20.291 8.7166C20.5132 8.90439 20.6918 9.13841 20.8142 9.40231C20.9367 9.66622 21.0001 9.95366 21 10.2446V19.2446C21 19.775 20.7893 20.2837 20.4142 20.6588C20.0391 21.0339 19.5304 21.2446 19 21.2446H5C4.46957 21.2446 3.96086 21.0339 3.58579 20.6588C3.21071 20.2837 3 19.775 3 19.2446V10.2446Z" stroke="#8C6584" stroke-width="2" stroke-linecap="round" stroke-linejoin="round"/>
</svg>
