<svg width="24" height="25" viewBox="0 0 24 25" fill="none" xmlns="http://www.w3.org/2000/svg">
<path d="M20 11.2446V9.24463C20 8.7142 19.7893 8.20549 19.4142 7.83042C19.0391 7.45534 18.5304 7.24463 18 7.24463H6C5.46957 7.24463 4.96086 7.45534 4.58579 7.83042C4.21071 8.20549 4 8.7142 4 9.24463V14.2446C4 14.7751 4.21071 15.2838 4.58579 15.6588C4.96086 16.0339 5.46957 16.2446 6 16.2446H10M14 21.2446V17.2446C14 16.7142 14.2107 16.2055 14.5858 15.8304C14.9609 15.4553 15.4696 15.2446 16 15.2446C16.5304 15.2446 17.0391 15.4553 17.4142 15.8304C17.7893 16.2055 18 16.7142 18 17.2446V21.2446M14 19.2446H18M21 15.2446V21.2446" stroke="#3E90F0" stroke-width="2" stroke-linecap="round" stroke-linejoin="round"/>
</svg>
