<svg width="16" height="17" viewBox="0 0 16 17" fill="none" xmlns="http://www.w3.org/2000/svg">
<path fill-rule="evenodd" clip-rule="evenodd" d="M11.8923 1.83301H4.10762C3.7562 1.833 3.453 1.83299 3.2033 1.85339C2.93973 1.87492 2.67759 1.92247 2.42533 2.051C2.04901 2.24274 1.74305 2.5487 1.5513 2.92503C1.42277 3.17728 1.37523 3.43943 1.35369 3.70299C1.33329 3.9527 1.3333 4.25587 1.33331 4.60729V12.392C1.3333 12.7435 1.33329 13.0467 1.35369 13.2964C1.37523 13.5599 1.42277 13.8221 1.5513 14.0743C1.74305 14.4506 2.04901 14.7566 2.42533 14.9484C2.67759 15.0769 2.93973 15.1244 3.2033 15.146C3.45301 15.1664 3.75618 15.1664 4.1076 15.1663H11.8924C12.2438 15.1664 12.547 15.1664 12.7967 15.146C13.0602 15.1244 13.3224 15.0769 13.5746 14.9484C13.951 14.7566 14.2569 14.4506 14.4487 14.0743C14.5772 13.8221 14.6247 13.5599 14.6463 13.2964C14.6667 13.0466 14.6667 12.7435 14.6666 12.3921V4.6073C14.6667 4.25587 14.6667 3.9527 14.6463 3.70299C14.6247 3.43943 14.5772 3.17728 14.4487 2.92503C14.2569 2.5487 13.951 2.24274 13.5746 2.051C13.3224 1.92247 13.0602 1.87492 12.7967 1.85339C12.547 1.83299 12.2438 1.833 11.8923 1.83301ZM9.15436 9.29613L9.76598 11.131C9.84498 11.368 9.88449 11.4865 9.8608 11.5809C9.84007 11.6634 9.78853 11.7349 9.71675 11.7807C9.63476 11.833 9.50985 11.833 9.26002 11.833H6.73994C6.49011 11.833 6.3652 11.833 6.28321 11.7807C6.21143 11.7349 6.15989 11.6634 6.13916 11.5809C6.11547 11.4865 6.15497 11.368 6.23398 11.131L6.84561 9.29613C6.89263 9.15505 6.91615 9.0845 6.91493 9.02679C6.91364 8.96609 6.90552 8.93428 6.87758 8.88039C6.851 8.82914 6.77995 8.76303 6.63785 8.6308C6.24544 8.26564 5.99998 7.74466 5.99998 7.16634C5.99998 6.06177 6.89541 5.16634 7.99998 5.16634C9.10455 5.16634 9.99998 6.06177 9.99998 7.16634C9.99998 7.74466 9.75452 8.26564 9.36211 8.6308C9.22001 8.76303 9.14896 8.82915 9.12238 8.88039C9.09444 8.93428 9.08632 8.9661 9.08503 9.02679C9.08381 9.0845 9.10733 9.15505 9.15436 9.29613Z" fill="#6C7275"/>
</svg>
