<svg width="24" height="25" viewBox="0 0 24 25" fill="none" xmlns="http://www.w3.org/2000/svg">
<path d="M15 8.24463H15.01M10 21.2446H6C5.20435 21.2446 4.44129 20.9286 3.87868 20.3659C3.31607 19.8033 3 19.0403 3 18.2446V6.24463C3 5.44898 3.31607 4.68592 3.87868 4.12331C4.44129 3.5607 5.20435 3.24463 6 3.24463H18C18.7956 3.24463 19.5587 3.5607 20.1213 4.12331C20.6839 4.68592 21 5.44898 21 6.24463V11.2446" stroke="#FF7320" stroke-width="2" stroke-linecap="round" stroke-linejoin="round"/>
<path d="M3 16.2447L8 11.2447C8.928 10.3517 10.072 10.3517 11 11.2447L12 12.2447M14 21.2447V17.2447C14 16.7143 14.2107 16.2056 14.5858 15.8305C14.9609 15.4554 15.4696 15.2447 16 15.2447C16.5304 15.2447 17.0391 15.4554 17.4142 15.8305C17.7893 16.2056 18 16.7143 18 17.2447V21.2447M14 19.2447H18M21 15.2447V21.2447" stroke="#FF7320" stroke-width="2" stroke-linecap="round" stroke-linejoin="round"/>
</svg>
