<svg width="24" height="25" viewBox="0 0 24 25" fill="none" xmlns="http://www.w3.org/2000/svg">
<path d="M14.25 21.2446C14.6642 21.2446 15 20.9088 15 20.4946C15 20.0804 14.6642 19.7446 14.25 19.7446C13.8358 19.7446 13.5 20.0804 13.5 20.4946C13.5 20.9088 13.8358 21.2446 14.25 21.2446Z" fill="#8E55EA"/>
<path d="M21.75 23.4946H12C11.1727 23.4946 10.5 22.8219 10.5 21.9946V18.9946C10.5 18.1674 11.1727 17.4946 12 17.4946H21.75C22.5773 17.4946 23.25 18.1674 23.25 18.9946V21.9946C23.25 22.8219 22.5773 23.4946 21.75 23.4946ZM12 18.9946V21.9946H21.75V18.9946H12ZM21.75 15.9946H12C11.1727 15.9946 10.5 15.3219 10.5 14.4946V11.4946C10.5 10.6674 11.1727 9.99463 12 9.99463H21.75C22.5773 9.99463 23.25 10.6674 23.25 11.4946V14.4946C23.25 15.3219 22.5773 15.9946 21.75 15.9946ZM12 11.4946V14.4946H21.75V11.4946H12Z" fill="#8E55EA"/>
<path d="M9 20.7196C5.51025 19.4806 3 16.1544 3 12.2446C3 7.28188 7.03725 3.24463 12 3.24463C15.6232 3.24463 18.7455 5.40163 20.1712 8.49463H21.7957C20.2815 4.55413 16.4677 1.74463 12 1.74463C6.21 1.74463 1.5 6.45463 1.5 12.2446C1.5 16.9921 4.66875 21.0084 9 22.3021V20.7196Z" fill="#8E55EA"/>
</svg>
