<svg width="24" height="25" viewBox="0 0 24 25" fill="none" xmlns="http://www.w3.org/2000/svg">
<path fill-rule="evenodd" clip-rule="evenodd" d="M13.7929 14.0375C14.1834 13.647 14.8166 13.647 15.2071 14.0375L20.7071 19.5375C21.0976 19.928 21.0976 20.5612 20.7071 20.9517C20.3166 21.3422 19.6834 21.3422 19.2929 20.9517L13.7929 15.4517C13.4024 15.0612 13.4024 14.428 13.7929 14.0375Z" fill="#3FDD78"/>
<path fill-rule="evenodd" clip-rule="evenodd" d="M10 5.24463C7.23858 5.24463 5 7.48321 5 10.2446C5 13.006 7.23858 15.2446 10 15.2446C12.7614 15.2446 15 13.006 15 10.2446C15 7.48321 12.7614 5.24463 10 5.24463ZM3 10.2446C3 6.37864 6.13401 3.24463 10 3.24463C13.866 3.24463 17 6.37864 17 10.2446C17 14.1106 13.866 17.2446 10 17.2446C6.13401 17.2446 3 14.1106 3 10.2446Z" fill="#3FDD78"/>
</svg>
