<svg width="24" height="25" viewBox="0 0 24 25" fill="none" xmlns="http://www.w3.org/2000/svg">
<path fill-rule="evenodd" clip-rule="evenodd" d="M12.5 2.24463C13.1894 2.24463 13.8136 2.52368 14.2659 2.97499C14.2834 2.99247 14.3007 3.01022 14.3177 3.02821C14.7174 3.45141 14.971 4.01416 14.9977 4.6357L14.9985 4.65668C14.9995 4.68587 15 4.71519 15 4.74463V4.75889C15 4.79954 15.0247 4.83608 15.0623 4.85165C15.0998 4.86724 15.1431 4.85886 15.1719 4.83009L15.182 4.82001C15.2028 4.79919 15.2239 4.77882 15.2452 4.75889L15.2607 4.74463C15.719 4.32397 16.2962 4.10536 16.8782 4.0888C16.9029 4.08809 16.9277 4.08775 16.9524 4.08778C17.5913 4.08845 18.23 4.33253 18.7175 4.82001L19.4246 5.52712C19.9121 6.0146 20.1562 6.65331 20.1569 7.29223C20.1569 7.31697 20.1565 7.34172 20.1558 7.36645C20.1393 7.94838 19.9207 8.52563 19.5 8.98398L19.4857 8.99939C19.4658 9.02074 19.4454 9.04183 19.4246 9.06265L19.4145 9.07274C19.3858 9.1015 19.3774 9.1448 19.393 9.18238C19.4085 9.21992 19.4451 9.24463 19.4857 9.24463H19.5C19.5294 9.24463 19.5588 9.24514 19.5879 9.24615L19.6089 9.24696C20.2305 9.27361 20.7932 9.5272 21.2164 9.92696C21.2344 9.94396 21.2522 9.96122 21.2696 9.97874C21.721 10.431 22 11.0552 22 11.7446V12.7446C22 13.434 21.721 14.0582 21.2696 14.5105C21.2522 14.528 21.2344 14.5453 21.2164 14.5623C20.7932 14.962 20.2305 15.2156 19.6089 15.2423L19.5879 15.2431C19.5588 15.2441 19.5294 15.2446 19.5 15.2446H19.4857C19.4451 15.2446 19.4085 15.2693 19.393 15.3069C19.3774 15.3444 19.3858 15.3877 19.4145 15.4165L19.4246 15.4266C19.4454 15.4474 19.4658 15.4685 19.4857 15.4898L19.5 15.5053C19.9207 15.9636 20.1393 16.5408 20.1558 17.1228C20.1565 17.1475 20.1569 17.1723 20.1569 17.197C20.1562 17.8359 19.9121 18.4746 19.4246 18.9621L18.7175 19.6692C18.23 20.1567 17.5913 20.4008 16.9524 20.4014C16.9277 20.4015 16.9029 20.4011 16.8782 20.4004C16.2963 20.3839 15.719 20.1653 15.2607 19.7446L15.2452 19.7303C15.2239 19.7104 15.2028 19.69 15.182 19.6692L15.1719 19.6591C15.1431 19.6304 15.0998 19.622 15.0623 19.6376C15.0247 19.6531 15 19.6897 15 19.7303V19.7446C15 19.774 14.9995 19.8034 14.9985 19.8325L14.9977 19.8535C14.971 20.4751 14.7174 21.0378 14.3177 21.461C14.3007 21.479 14.2834 21.4968 14.2659 21.5142C13.8136 21.9655 13.1894 22.2446 12.5 22.2446H11.5C10.8106 22.2446 10.1864 21.9655 9.73411 21.5142C9.71659 21.4968 9.69933 21.479 9.68233 21.461C9.28257 21.0378 9.02898 20.4751 9.00233 19.8535L9.00152 19.8325C9.00051 19.8034 9 19.774 9 19.7446V19.7303C9 19.6897 8.97529 19.6531 8.93774 19.6376C8.90017 19.622 8.85687 19.6304 8.8281 19.6591L8.81802 19.6692C8.7972 19.69 8.77611 19.7104 8.75475 19.7303L8.73934 19.7446C8.281 20.1653 7.70375 20.3839 7.12182 20.4004C7.09708 20.4011 7.07234 20.4015 7.0476 20.4014C6.40868 20.4008 5.76997 20.1567 5.28249 19.6692L4.57538 18.9621C4.0879 18.4746 3.84382 17.8359 3.84315 17.197C3.84312 17.1723 3.84346 17.1475 3.84417 17.1228C3.86073 16.5408 4.07934 15.9636 4.5 15.5053L4.51426 15.4898C4.53419 15.4685 4.55456 15.4474 4.57538 15.4266L4.58546 15.4165C4.61423 15.3877 4.62261 15.3444 4.60702 15.3069C4.59145 15.2693 4.55491 15.2446 4.51426 15.2446H4.5C4.47056 15.2446 4.44125 15.2441 4.41205 15.2431L4.39107 15.2423C3.76953 15.2156 3.20678 14.962 2.78358 14.5623C2.76558 14.5453 2.74784 14.528 2.73036 14.5105C2.27905 14.0582 2 13.434 2 12.7446V11.7446C2 11.0552 2.27905 10.431 2.73036 9.97874C2.74784 9.96122 2.76558 9.94396 2.78358 9.92696C3.20678 9.5272 3.76953 9.27361 4.39107 9.24696L4.41205 9.24615C4.44125 9.24514 4.47056 9.24463 4.5 9.24463H4.51426C4.55491 9.24463 4.59145 9.21992 4.60702 9.18238C4.62261 9.1448 4.61423 9.1015 4.58546 9.07274L4.57538 9.06265C4.55456 9.04183 4.53419 9.02074 4.51426 8.99939L4.5 8.98398C4.07934 8.52563 3.86073 7.94838 3.84417 7.36645C3.84346 7.34172 3.84312 7.31697 3.84315 7.29223C3.84382 6.65331 4.0879 6.0146 4.57538 5.52712L5.28249 4.82001C5.76997 4.33253 6.40868 4.08845 7.0476 4.08778C7.07234 4.08775 7.09709 4.08809 7.12182 4.0888C7.70375 4.10536 8.281 4.32397 8.73934 4.74463L8.75476 4.75889C8.77611 4.77882 8.7972 4.79919 8.81802 4.82001L8.8281 4.83009C8.85687 4.85886 8.90017 4.86724 8.93775 4.85165C8.97529 4.83608 9 4.79954 9 4.75889V4.74463C9 4.71519 9.00051 4.68587 9.00152 4.65668L9.00233 4.6357C9.02898 4.01416 9.28257 3.45141 9.68233 3.02821C9.69933 3.01022 9.71659 2.99247 9.73411 2.97499C10.1864 2.52368 10.8106 2.24463 11.5 2.24463H12.5ZM11 19.7446C11 20.0207 11.2239 20.2446 11.5 20.2446H12.5C12.7761 20.2446 13 20.0207 13 19.7446V19.7303C13 18.8708 13.5212 18.1115 14.2962 17.7901C15.0727 17.4681 15.9787 17.6375 16.5861 18.2449L16.5962 18.255C16.7915 18.4503 17.108 18.4503 17.3033 18.255L18.0104 17.5479C18.2057 17.3526 18.2057 17.0361 18.0104 16.8408L18.0003 16.8307C17.3929 16.2233 17.2235 15.3173 17.5455 14.5407C17.8669 13.7658 18.6262 13.2446 19.4857 13.2446H19.5C19.7761 13.2446 20 13.0207 20 12.7446V11.7446C20 11.4685 19.7761 11.2446 19.5 11.2446H19.4857C18.6262 11.2446 17.8669 10.7234 17.5455 9.94848C17.2235 9.1719 17.3929 8.26595 18.0003 7.65852L18.0104 7.64844C18.2057 7.45317 18.2057 7.13659 18.0104 6.94133L17.3033 6.23422C17.108 6.03896 16.7915 6.03896 16.5962 6.23422L16.5861 6.24431C15.9787 6.85174 15.0727 7.02114 14.2962 6.69911C13.5212 6.37774 13 5.61844 13 4.75889V4.74463C13 4.46849 12.7761 4.24463 12.5 4.24463H11.5C11.2239 4.24463 11 4.46849 11 4.74463V4.75889C11 5.61844 10.4788 6.37774 9.70384 6.69911C8.92725 7.02114 8.02132 6.85174 7.41389 6.24431L7.40381 6.23422C7.20854 6.03896 6.89196 6.03896 6.6967 6.23422L5.98959 6.94133C5.79433 7.13659 5.79433 7.45317 5.98959 7.64844L5.99967 7.65852C6.60711 8.26595 6.77651 9.1719 6.45448 9.94848C6.13311 10.7234 5.37382 11.2446 4.51426 11.2446H4.5C4.22386 11.2446 4 11.4685 4 11.7446V12.7446C4 13.0207 4.22386 13.2446 4.5 13.2446H4.51426C5.37382 13.2446 6.13311 13.7658 6.45447 14.5407C6.77651 15.3173 6.60711 16.2233 5.99968 16.8307L5.98959 16.8408C5.79433 17.0361 5.79433 17.3526 5.98959 17.5479L6.6967 18.255C6.89196 18.4503 7.20854 18.4503 7.4038 18.255L7.41389 18.2449C8.02132 17.6375 8.92726 17.4681 9.70384 17.7901C10.4788 18.1115 11 18.8708 11 19.7303V19.7446Z" fill="#8E55EA"/>
<path fill-rule="evenodd" clip-rule="evenodd" d="M12 14.2446C13.1046 14.2446 14 13.3492 14 12.2446C14 11.14 13.1046 10.2446 12 10.2446C10.8954 10.2446 10 11.14 10 12.2446C10 13.3492 10.8954 14.2446 12 14.2446ZM12 16.2446C14.2091 16.2446 16 14.4537 16 12.2446C16 10.0355 14.2091 8.24463 12 8.24463C9.79086 8.24463 8 10.0355 8 12.2446C8 14.4537 9.79086 16.2446 12 16.2446Z" fill="#8E55EA"/>
</svg>
