<svg width="24" height="25" viewBox="0 0 24 25" fill="none" xmlns="http://www.w3.org/2000/svg">
<path d="M20 7.24463H11M14 17.2446H5" stroke="#3FDD78" stroke-width="2" stroke-linecap="round" stroke-linejoin="round"/>
<path d="M17 20.2446C18.6569 20.2446 20 18.9015 20 17.2446C20 15.5878 18.6569 14.2446 17 14.2446C15.3431 14.2446 14 15.5878 14 17.2446C14 18.9015 15.3431 20.2446 17 20.2446Z" stroke="#3FDD78" stroke-width="2" stroke-linecap="round" stroke-linejoin="round"/>
<path d="M7 10.2446C8.65685 10.2446 10 8.90148 10 7.24463C10 5.58777 8.65685 4.24463 7 4.24463C5.34315 4.24463 4 5.58777 4 7.24463C4 8.90148 5.34315 10.2446 7 10.2446Z" stroke="#3FDD78" stroke-width="2" stroke-linecap="round" stroke-linejoin="round"/>
</svg>
