<svg width="24" height="25" viewBox="0 0 24 25" fill="none" xmlns="http://www.w3.org/2000/svg">
<g clip-path="url(#clip0_281_1809)">
<path d="M22.3841 16.1389L18.6698 20.1295C18.5891 20.2162 18.4914 20.2853 18.3829 20.3325C18.2743 20.3797 18.1572 20.4041 18.0388 20.404H0.431204C0.347189 20.404 0.265004 20.3795 0.194748 20.3333C0.124492 20.2871 0.0692243 20.2214 0.0357363 20.1443C0.00224829 20.067 -0.00800157 19.9818 0.00624615 19.8988C0.0204938 19.8158 0.0586185 19.7389 0.115935 19.6773L3.83304 15.6868C3.91357 15.6003 4.01095 15.5313 4.11916 15.4841C4.22737 15.4368 4.34411 15.4124 4.46215 15.4122H22.0688C22.1528 15.4122 22.235 15.4368 22.3052 15.4829C22.3755 15.5291 22.4308 15.5948 22.4643 15.672C22.4978 15.7492 22.508 15.8345 22.4938 15.9174C22.4795 16.0004 22.4414 16.0773 22.3841 16.1389ZM18.6698 8.10299C18.5891 8.01627 18.4914 7.94718 18.3829 7.89994C18.2743 7.8527 18.1572 7.82833 18.0388 7.8284H0.431204C0.347189 7.8284 0.265004 7.85299 0.194748 7.89915C0.124492 7.94531 0.0692243 8.01103 0.0357363 8.08818C0.00224829 8.1654 -0.00800157 8.25067 0.00624615 8.33365C0.0204938 8.41662 0.0586185 8.49355 0.115935 8.5551L3.83304 12.5457C3.91357 12.6322 4.01095 12.7011 4.11916 12.7484C4.22737 12.7956 4.34411 12.8201 4.46215 12.8203H22.0688C22.1528 12.8203 22.235 12.7957 22.3052 12.7495C22.3755 12.7034 22.4308 12.6376 22.4643 12.5604C22.4978 12.4833 22.508 12.3979 22.4938 12.315C22.4795 12.2321 22.4414 12.1551 22.3841 12.0936L18.6698 8.10299ZM0.431204 5.23648H18.0388C18.1572 5.23654 18.2743 5.2122 18.3829 5.16496C18.4914 5.11773 18.5891 5.04862 18.6698 4.96193L22.3841 0.971326C22.4414 0.909791 22.4795 0.83282 22.4938 0.749874C22.508 0.666928 22.4978 0.581619 22.4643 0.504429C22.4308 0.427239 22.3755 0.36153 22.3052 0.315375C22.235 0.269221 22.1528 0.244632 22.0688 0.244629H4.46215C4.34411 0.24483 4.22737 0.269301 4.11916 0.316527C4.01095 0.363752 3.91357 0.432727 3.83304 0.519181L0.116894 4.50978C0.059632 4.57126 0.0215243 4.64814 0.00724419 4.731C-0.00703579 4.81386 0.00313273 4.89909 0.0365027 4.97625C0.0698727 5.0534 0.124994 5.11911 0.195105 5.16534C0.265217 5.21157 0.347271 5.23629 0.431204 5.23648Z" fill="url(#paint0_linear_281_1809)"/>
</g>
<defs>
<linearGradient id="paint0_linear_281_1809" x1="1.89927" y1="20.8845" x2="20.4009" y2="0.0651838" gradientUnits="userSpaceOnUse">
<stop offset="0.08" stop-color="#9945FF"/>
<stop offset="0.3" stop-color="#8752F3"/>
<stop offset="0.5" stop-color="#5497D5"/>
<stop offset="0.6" stop-color="#43B4CA"/>
<stop offset="0.72" stop-color="#28E0B9"/>
<stop offset="0.97" stop-color="#19FB9B"/>
</linearGradient>
<clipPath id="clip0_281_1809">
<rect width="24" height="24" fill="white" transform="translate(0 0.244629)"/>
</clipPath>
</defs>
</svg>
