<svg width="16" height="17" viewBox="0 0 16 17" fill="none" xmlns="http://www.w3.org/2000/svg">
<path d="M8.66669 1.83366C8.66669 1.46547 8.36821 1.16699 8.00002 1.16699C7.63183 1.16699 7.33335 1.46547 7.33335 1.83366V3.16699C7.33335 3.53518 7.63183 3.83366 8.00002 3.83366C8.36821 3.83366 8.66669 3.53518 8.66669 3.16699V1.83366Z" fill="#6C7275"/>
<path d="M8.66669 13.8337C8.66669 13.4655 8.36821 13.167 8.00002 13.167C7.63183 13.167 7.33335 13.4655 7.33335 13.8337V15.167C7.33335 15.5352 7.63183 15.8337 8.00002 15.8337C8.36821 15.8337 8.66669 15.5352 8.66669 15.167V13.8337Z" fill="#6C7275"/>
<path d="M0.666687 8.50033C0.666687 8.13213 0.965164 7.83366 1.33335 7.83366H2.66669C3.03488 7.83366 3.33335 8.13214 3.33335 8.50033C3.33335 8.86852 3.03488 9.16699 2.66669 9.16699H1.33335C0.965164 9.16699 0.666687 8.86851 0.666687 8.50033Z" fill="#6C7275"/>
<path d="M3.73803 3.29552C3.47768 3.03517 3.05557 3.03517 2.79522 3.29552C2.53487 3.55587 2.53487 3.97798 2.79522 4.23833L3.73803 5.18114C3.99838 5.44149 4.42049 5.44149 4.68084 5.18114C4.94118 4.92079 4.94118 4.49868 4.68084 4.23833L3.73803 3.29552Z" fill="#6C7275"/>
<path d="M13.2048 3.29552C13.4652 3.55587 13.4652 3.97798 13.2048 4.23833L12.262 5.18114C12.0017 5.44149 11.5796 5.44149 11.3192 5.18114C11.0589 4.92079 11.0589 4.49868 11.3192 4.23833L12.262 3.29552C12.5224 3.03517 12.9445 3.03517 13.2048 3.29552Z" fill="#6C7275"/>
<path d="M4.68084 12.765C4.94118 12.5047 4.94118 12.0826 4.68084 11.8222C4.42049 11.5619 3.99838 11.5619 3.73803 11.8222L2.79522 12.765C2.53487 13.0254 2.53487 13.4475 2.79522 13.7078C3.05557 13.9682 3.47768 13.9682 3.73803 13.7078L4.68084 12.765Z" fill="#6C7275"/>
<path d="M11.3192 11.8222C11.5796 11.5619 12.0017 11.5619 12.262 11.8222L13.2048 12.765C13.4652 13.0254 13.4652 13.4475 13.2048 13.7078C12.9445 13.9682 12.5224 13.9682 12.262 13.7078L11.3192 12.765C11.0589 12.5047 11.0589 12.0826 11.3192 11.8222Z" fill="#6C7275"/>
<path d="M13.3334 7.83366C12.9652 7.83366 12.6667 8.13213 12.6667 8.50033C12.6667 8.86851 12.9652 9.16699 13.3334 9.16699H14.6667C15.0349 9.16699 15.3334 8.86852 15.3334 8.50033C15.3334 8.13214 15.0349 7.83366 14.6667 7.83366H13.3334Z" fill="#6C7275"/>
<path d="M8.00002 4.50033C5.79088 4.50033 4.00002 6.29119 4.00002 8.50033C4.00002 10.7095 5.79088 12.5003 8.00002 12.5003C10.2092 12.5003 12 10.7095 12 8.50033C12 6.29119 10.2092 4.50033 8.00002 4.50033Z" fill="#6C7275"/>
</svg>
