<svg width="24" height="25" viewBox="0 0 24 25" fill="none" xmlns="http://www.w3.org/2000/svg">
<path d="M12.546 9.96663H13.485C14.523 9.96663 15.364 10.8126 15.364 11.8566V12.8006M15.364 11.8556C15.364 11.3336 15.784 10.9116 16.304 10.9116C17.341 10.9116 18.182 11.7566 18.182 12.8006M18.182 12.8006V13.7446M18.182 12.8006C18.182 12.3056 18.623 11.9296 19.109 12.0106L19.43 12.0646C20.336 12.2166 21 13.0046 21 13.9276V14.3746C21 16.4266 21 17.4536 20.689 18.2706C20.509 18.7446 20.032 19.3486 19.652 19.7856C19.3165 20.1599 19.1279 20.643 19.121 21.1456V22.2446M12.546 11.8556V6.66163C12.546 5.87863 11.915 5.24463 11.136 5.24463C10.357 5.24463 9.72703 5.87863 9.72703 6.66163V14.1816L8.20503 12.6466C8.04809 12.4878 7.85919 12.3641 7.65084 12.2838C7.4425 12.2035 7.21946 12.1683 6.99651 12.1807C6.77356 12.1931 6.55578 12.2527 6.35761 12.3556C6.15945 12.4585 5.98541 12.6024 5.84703 12.7776C5.62747 13.0553 5.50555 13.3976 5.50013 13.7515C5.4947 14.1055 5.60608 14.4514 5.81703 14.7356L9.19803 19.0776C9.84503 19.9086 10.197 21.1896 10.197 22.2446" stroke="#8C6584" stroke-width="1.5" stroke-linecap="round" stroke-linejoin="round"/>
<path d="M6 8.24463H5.176C3.68 8.24463 2.93 8.24463 2.466 7.80463C2 7.36663 2 6.65963 2 5.24463C2 3.82963 2 3.12363 2.465 2.68463C2.93 2.24563 3.68 2.24463 5.176 2.24463H16.823C18.321 2.24463 19.07 2.24463 19.535 2.68463C20 3.12263 20 3.82963 20 5.24463C20 6.65963 20 7.36563 19.535 7.80463C19.07 8.24363 18.32 8.24463 16.823 8.24463H16" stroke="#8C6584" stroke-width="1.5" stroke-linecap="round" stroke-linejoin="round"/>
</svg>
