<svg width="16" height="17" viewBox="0 0 16 17" fill="none" xmlns="http://www.w3.org/2000/svg">
<path fill-rule="evenodd" clip-rule="evenodd" d="M2.27879 12.7017C3.5941 10.961 5.66594 9.83301 8.00002 9.83301C10.3341 9.83301 12.406 10.961 13.7213 12.7017C13.7272 12.7096 13.7332 12.7175 13.7392 12.7254C13.8523 12.875 13.9735 13.0354 14.0602 13.1901C14.1651 13.3773 14.2428 13.5939 14.238 13.8574C14.2341 14.0692 14.17 14.2674 14.092 14.4239C14.0141 14.5805 13.8946 14.7512 13.728 14.8819C13.5058 15.0563 13.2639 15.118 13.0489 15.1438C12.8604 15.1664 12.6369 15.1664 12.4122 15.1663C12.4021 15.1663 12.392 15.1663 12.3819 15.1663H3.61818C3.60805 15.1663 3.59793 15.1663 3.5878 15.1663C3.36314 15.1664 3.13968 15.1664 2.95112 15.1438C2.73619 15.118 2.49425 15.0563 2.27204 14.8819C2.10541 14.7512 1.98592 14.5805 1.90801 14.4239C1.83009 14.2674 1.76593 14.0692 1.76205 13.8574C1.75724 13.5939 1.83497 13.3773 1.93986 13.1901C2.02652 13.0354 2.14778 12.875 2.26088 12.7254C2.26687 12.7175 2.27284 12.7096 2.27879 12.7017Z" fill="#FEFEFE"/>
<path fill-rule="evenodd" clip-rule="evenodd" d="M4.33336 5.49967C4.33336 3.47463 5.97498 1.83301 8.00002 1.83301C10.0251 1.83301 11.6667 3.47463 11.6667 5.49967C11.6667 7.52472 10.0251 9.16634 8.00002 9.16634C5.97498 9.16634 4.33336 7.52472 4.33336 5.49967Z" fill="#FEFEFE"/>
</svg>
